inDegrees=no
num_controls=7
num_derivatives=13
num_iterations=84
num_multipliers=7
num_parameters=0
num_slacks=7
num_states=26
objective=0.333899
objective_accelerations=0.037339
objective_balance=0.001326
objective_effort=0.027343
objective_height=0.266420
objective_ligament=0.001470
solver_duration=874.509707
status=Solve_Succeeded
success=true
DataType=double
version=3
OpenSimVersion=4.5
endheader
time	/jointset/ground_pelvis/pelvis_tilt/value	/jointset/ground_pelvis/pelvis_tx/value	/jointset/ground_pelvis/pelvis_ty/value	/jointset/hip_r/hip_flexion_r/value	/jointset/hip_r/hip_adduction_r/value	/jointset/hip_r/hip_rotation_r/value	/jointset/back/lumbar_extension/value	/jointset/patellofemoral_r/patellar_flexion_r/value	/jointset/knee_r/knee_flexion_r/value	/jointset/knee_r/knee_adduction_r/value	/jointset/knee_r/knee_rotation_r/value	/jointset/ankle_r/ankle_angle_r/value	/jointset/subtalar_r/subtalar_angle_r/value	/jointset/ground_pelvis/pelvis_tilt/speed	/jointset/ground_pelvis/pelvis_tx/speed	/jointset/ground_pelvis/pelvis_ty/speed	/jointset/hip_r/hip_flexion_r/speed	/jointset/hip_r/hip_adduction_r/speed	/jointset/hip_r/hip_rotation_r/speed	/jointset/back/lumbar_extension/speed	/jointset/patellofemoral_r/patellar_flexion_r/speed	/jointset/knee_r/knee_flexion_r/speed	/jointset/knee_r/knee_adduction_r/speed	/jointset/knee_r/knee_rotation_r/speed	/jointset/ankle_r/ankle_angle_r/speed	/jointset/subtalar_r/subtalar_angle_r/speed	/forceset/tau_hip_flexion_r	/forceset/tau_hip_adduction_r	/forceset/tau_hip_rotation_r	/forceset/tau_knee_flexion_r	/forceset/tau_ankle_angle_r	/forceset/tau_subtalar_angle_r	/forceset/tau_lumbar_extension	lambda_cid13_p0	lambda_cid14_p0	lambda_cid14_p1	lambda_cid14_p2	lambda_cid14_p3	lambda_cid14_p4	lambda_cid14_p5	/jointset/ground_pelvis/pelvis_tilt/accel	/jointset/ground_pelvis/pelvis_tx/accel	/jointset/ground_pelvis/pelvis_ty/accel	/jointset/hip_r/hip_flexion_r/accel	/jointset/hip_r/hip_adduction_r/accel	/jointset/hip_r/hip_rotation_r/accel	/jointset/back/lumbar_extension/accel	/jointset/patellofemoral_r/patellar_flexion_r/accel	/jointset/knee_r/knee_flexion_r/accel	/jointset/knee_r/knee_adduction_r/accel	/jointset/knee_r/knee_rotation_r/accel	/jointset/ankle_r/ankle_angle_r/accel	/jointset/subtalar_r/subtalar_angle_r/accel	gamma_cid13_p0	gamma_cid14_p0	gamma_cid14_p1	gamma_cid14_p2	gamma_cid14_p3	gamma_cid14_p4	gamma_cid14_p5
0	-0.01014229167974583	0.1333286932827949	0.9327572095937425	0.1934211968871041	-0.235160768885771	-0.2347087043412432	-0.2903787966825928	0.231178627336334	0.2311786273363406	0.1482230976739548	0.1707837070743293	0.089344008118978	0.05512353914460542	0	0	0	0	0	0	0	0	0	0	0	0	0	0.1115093561360963	-0.04251319496149554	0.004896843347483337	-0.252279637805844	0.1340381579226071	-0.1242667284299448	-0.03163391082855682	-29.90538259845478	-5.015533240361091	-50.04080222770453	2.909716762283796	0.8260603359622818	-610.5766979725585	20.51920093479884	-2.13992812212755	-1.907285137017338	-0.8459302611722921	10.41246100744615	0.2745998922269818	2.251906740585205	-6.396520395323503	10.21083178568237	10.21083178568241	-3.190016660146579	0.3509639345434084	2.763245454662867	1.090486463574328	4.759842997699126e-08	4.419690157804997e-08	-3.130064690445867e-07	2.407940892200922e-07	-1.620596262906216e-09	2.233778655173391e-07	-2.703306894227718e-07
0.01	-0.01024374975665456	0.1332357042257276	0.9327161303219903	0.1939285711738448	-0.2351439521120515	-0.2345951233147932	-0.2906991534249685	0.2316798685441225	0.2316798685441164	0.1480595592548164	0.1707958833477342	0.08948206828895275	0.05518183798775688	-0.02026808082970722	-0.01838111666590436	-0.00819312538235965	0.1009274253412971	0.003387946604917115	0.02264114515982961	-0.06355995324449611	0.09977171056449424	0.09977171056449466	-0.03263008293124055	0.002343170517562674	0.0276515103083622	0.01170469099012697	0.1109557446614114	-0.06173450460405649	0.004773689599339492	-0.2570844600232506	0.1392875735982739	-0.1102626100073548	-0.0299258036368162	-29.9102748225558	-2.631006274925255	-43.39844735356237	1.687570571366244	-3.012496670036253	-612.3633806130982	34.92145405261664	-1.966720559195913	-1.771021042737593	-0.8025496560229807	9.850769369443347	0.3745709022665174	2.259008844717162	-6.259023504790468	9.788851523233561	9.788851523233664	-3.287892901584759	0.1622291059521159	2.772033323468819	1.217177547284159	8.299155177183992e-08	4.343282979081269e-08	-5.180202921596319e-07	4.200587766263934e-07	2.815809784094976e-08	1.187997729698493e-07	-5.005866677116788e-07
0.02	-0.0105471831410146	0.1329654047797297	0.9325938106005639	0.1954287969284013	-0.2350925201007537	-0.2342573727485419	-0.2916397678429435	0.2331645290238252	0.2331645290238262	0.1475720422479715	0.1708287384254616	0.08989782946291956	0.05535852716692007	-0.04039506149159435	-0.03546207778608673	-0.01624808993485705	0.1985702935614778	0.006923047515529048	0.04483390796107299	-0.124051535120137	0.1966838543850155	0.1966838543850171	-0.06479571754136745	0.004135760858697149	0.05554020079856504	0.02367806720234888	0.1104021331867687	-0.0809558142466095	0.004650535851314566	-0.2618892822406316	0.144536989273955	-0.09625849158475343	-0.02821769644506213	-29.92436307133477	-0.1659225472079106	-36.76645916179262	0.4950312012747286	-6.766504889018849	-612.8117951286968	48.9706107549907	-2.111708088563765	-1.647254027872717	-0.8182980951998549	9.755549583222825	0.3040307533659632	2.162230268867963	-5.782846121552589	9.638918436887744	9.638918436887939	-3.097126995923887	0.2408478992577368	2.810681491031248	1.144223507993411	1.183846735666886e-07	4.266875800357541e-08	-7.230341152746772e-07	5.993234640326945e-07	5.793679194480574e-08	1.42216804223596e-08	-7.308426460005857e-07
0.03	-0.01105079168824873	0.1325293401405719	0.9323913193655191	0.1978902208735711	-0.2350061199709871	-0.2337018166410093	-0.2931703344442097	0.2356043174351343	0.235604317435127	0.1467675229010548	0.1708790771990156	0.09059149148019671	0.05565436465191328	-0.06022287416624331	-0.05167911685308739	-0.02425086254318449	0.2932438183798113	0.01029809143535677	0.06615831414758398	-0.1816334195341067	0.2908091064356185	0.2908091064356225	-0.09584161750351708	0.005912349223199485	0.08302550605351015	0.0353770708953401	0.1038073997657612	-0.08119909019022467	0.005435708021098095	-0.2543545540196967	0.1336926576502646	-0.09093040977678957	-0.02290229768638654	-29.94691528092454	-3.368348615452949	-34.86955549496366	0.0285420269974033	-5.206925881863388	-613.0954070281871	51.61732018069753	-1.902744804005886	-1.598157158960668	-0.7913702422448351	9.252658599105688	0.3454168487884988	2.099812954110835	-5.681604761824226	9.229596553088641	9.229596553088907	-3.068394147745257	0.1432334018170408	2.69246305191135	1.165842375520006	1.243013028291632e-07	3.914998551159158e-08	-7.360200768764389e-07	6.300048236933358e-07	6.393699123888168e-08	-5.767925602540544e-08	-7.582636333262247e-07
0.04	-0.0117495637516417	0.1319332594481754	0.9321087797246715	0.2012842610005273	-0.2348877342745235	-0.2329365630395045	-0.2952638689217161	0.2389714119597273	0.2389714119597291	0.1456605300242809	0.1709466156755858	0.09155500815185783	0.05606381288895002	-0.07942776472453941	-0.06746528843383104	-0.032257771095389	0.3850935299168315	0.01332016085506866	0.0867734067568221	-0.2366451103683098	0.3821450770439032	0.3821450770439089	-0.1252904235210682	0.007575701458519291	0.1095111316758665	0.04640021761105817	0.09721266634480553	-0.08144236613380848	0.006220880190973043	-0.2468198257987412	0.1228483260265925	-0.08560232796878409	-0.01758689892768719	-29.97681005490525	-6.497053162588148	-32.98024871783721	-0.4133140166064068	-3.581806666867003	-612.1699502523817	53.94660968576749	-1.987123665293407	-1.561080530621093	-0.8191252839752801	9.190786926960129	0.2334358533428215	2.020367553413392	-5.268807405599371	9.081062148424046	9.081062148424111	-2.777708207004236	0.2182006734211956	2.610745564513751	1.009052112538878	1.296101693590114e-07	3.557441506693255e-08	-7.450467011274112e-07	6.576226095860253e-07	6.944691228945699e-08	-1.289064366772999e-07	-7.815024558897343e-07
0.05	-0.01263797853922134	0.1311817104492372	0.9317459017284722	0.2055832375894337	-0.2347407090675642	-0.2319697692849638	-0.2978944412296035	0.2432380248811395	0.2432380248811402	0.1442666227802798	0.1710308967614072	0.09277865087100774	0.0565804678019326	-0.09817533224587592	-0.08274768540320461	-0.04033452383067501	0.4742303017106562	0.01607513270767358	0.106416565040034	-0.2890690450125492	0.470697141055111	0.4706971410551115	-0.1533220557433123	0.009251497116178857	0.1350830300139721	0.05689212381418449	0.09172186954883724	-0.0748189373783822	0.006658196951924538	-0.2425625738594147	0.1183294457766487	-0.08641186678770331	-0.01304387393645517	-30.01288732358358	-7.931918723032928	-33.63540919104124	-0.2490750071026527	-3.231467187097163	-611.5859030763194	51.02473479008725	-1.806583089676219	-1.497281452986547	-0.8044809781183012	8.704407300193168	0.2950850904350553	1.911099025679139	-5.169140564684544	8.670197635015805	8.670197635015001	-2.790594595842982	0.1380413226522212	2.510266747514575	1.06342516120348	1.130406830464216e-07	2.159720985961699e-08	-6.01758853563569e-07	6.210044880188597e-07	6.541168318139044e-08	-2.075596667122232e-07	-7.010960375337246e-07
0.06	-0.01371147096083099	0.1302802450460276	0.9313017500629563	0.2107594388952063	-0.2345664226942355	-0.2308115821356123	-0.3010372436981028	0.2483757422641653	0.2483757422641652	0.1425974584408608	0.1711310902659621	0.09425398352934937	0.05720087483434726	-0.1164432915321315	-0.0974485692880947	-0.0485125049586566	0.5605384732884631	0.01877239412890859	0.1250520857194071	-0.3390911424907509	0.5563659693681806	0.5563659693681756	-0.1803418426059044	0.01075818520238911	0.1598491195143051	0.06715064149747521	0.08623107275287381	-0.06819550862294274	0.00709551371293586	-0.2383053219201035	0.1138105655267016	-0.0872214056066084	-0.008500848945215276	-30.05352181345216	-9.302151740981085	-34.30111562358898	-0.05818224879022769	-2.828146965109881	-609.9289429913895	47.81740509366111	-1.891202018277389	-1.444777913724181	-0.8393709625144089	8.625066883756542	0.2218937670688624	1.818840032645625	-4.788439972391934	8.504415008796352	8.50441500879635	-2.575339135073896	0.184379159131297	2.449583796959492	0.9623744085718562	9.555000292993964e-08	7.18204108334748e-09	-4.520577650812083e-07	5.816816966639107e-07	6.097455301401266e-08	-2.865255725106423e-07	-6.163256090337353e-07
0.07000000000000001	-0.01496576117735621	0.1292346560876338	0.930775025395011	0.2167854288437953	-0.2343662618238986	-0.2294724586890172	-0.3046680616895893	0.254356552006953	0.2543565520069521	0.1406647069342887	0.1712463935367018	0.09597297578630211	0.0579217403360977	-0.1343373942567833	-0.1115732985789755	-0.05686803813667776	0.6442207337539999	0.02122796796400846	0.1426361245908747	-0.386705675486706	0.6393703860549161	0.6393703860549189	-0.2059978046761296	0.01225490425800012	0.1838323255751298	0.076963105131894	0.08069778554449002	-0.06963964735892574	0.007583165558391986	-0.2347480035332589	0.1081701756385846	-0.08118796526405302	-0.004023740532103119	-30.097092089006	-10.67450782818994	-31.88122725901851	-0.4895022321248727	-2.656425141479604	-608.3973295022258	51.10703374447784	-1.726897868500286	-1.381919723305763	-0.8390441836855898	8.173995536086002	0.2526677371388598	1.707816901125329	-4.692942915570916	8.134597130366894	8.134597130368052	-2.529135182298285	0.1252891489678301	2.355140313431331	0.981779454487845	7.058841211999414e-08	-8.076882904209693e-09	-2.541303838901634e-07	5.248619065401587e-07	5.110071803589492e-08	-3.390222019237409e-07	-5.002686510406372e-07
0.08	-0.01639666911490902	0.1280506999790247	0.9301636654576364	0.2236350793786754	-0.2341424895061312	-0.2279615686363647	-0.3087640216015096	0.2611546343429564	0.2611546343429523	0.1384817137191865	0.1713752581720326	0.09792829036441927	0.05873894989691453	-0.1517668357391046	-0.1251219993311694	-0.06543955884448616	0.725270590544885	0.02349468361544033	0.1594054069314622	-0.4321195265776344	0.7198204880118361	0.7198204880118464	-0.2303901843184214	0.01347045812128049	0.2071135837474519	0.08641945331075669	0.07516449833612678	-0.07108378609488825	0.008070817403851446	-0.2311906851464176	0.1025297857504694	-0.07515452492147215	0.0004533678810265885	-30.14164785902809	-11.98790686953925	-29.46168781827556	-0.9085771704312438	-2.457818126029837	-605.9385806502024	54.1792791495646	-1.798269769811455	-1.329572205986588	-0.8825684684718649	8.098586148826168	0.184122130335284	1.655888726469621	-4.348303591386652	7.993552062833163	7.993552062833132	-2.32262264948725	0.1281461206651298	2.309194219259218	0.8911513174607297	4.514482707176071e-08	-2.339024271184992e-08	-5.309162897597792e-08	4.669132777861613e-07	4.08761279086972e-08	-3.898111360861736e-07	-3.821932072737905e-07
0.09	-0.01799995036760746	0.1267340396357909	0.9294653363918504	0.2312826331922643	-0.2338974267960476	-0.2262875019455669	-0.3133030447948429	0.2687446298458324	0.2687446298458227	0.1360619856620759	0.1715155087288409	0.1001126415167663	0.05964835751188261	-0.168807090643114	-0.1381224152974561	-0.07427038975496625	0.8038022667840875	0.02548593564307861	0.1752890531272388	-0.4753594596487354	0.7977385304435212	0.7977385304435275	-0.2533342502975464	0.01450431008076459	0.2296186217414678	0.09539767322045294	0.06937723825193555	-0.06763676820641039	0.008466572072200876	-0.2277859469062097	0.09768425563391508	-0.07250443378398694	0.005029520765727455	-30.18523328420025	-13.25491982345584	-28.57712889117289	-0.9987346771844838	-2.142661749973814	-603.8649165706557	53.91478244212724	-1.64454242473971	-1.272120178731722	-0.8900395017547001	7.664777949087617	0.2019251553785145	1.5368408990179	-4.262990299289241	7.624909397703858	7.62490939770329	-2.247077614263119	0.07978163854872314	2.200444112130557	0.8915485599883721	8.780647657872148e-09	-4.335277451464694e-08	2.072991838963569e-07	3.054222726758181e-07	2.636255653984862e-08	-4.562234771582951e-07	-1.597748887159287e-07
